<?xml version="1.0" encoding="UTF-8" standalone="no"?>
<svg
   xmlns:dc="http://purl.org/dc/elements/1.1/"
   xmlns:cc="http://creativecommons.org/ns#"
   xmlns:rdf="http://www.w3.org/1999/02/22-rdf-syntax-ns#"
   xmlns:svg="http://www.w3.org/2000/svg"
   xmlns="http://www.w3.org/2000/svg"
   xmlns:sodipodi="http://sodipodi.sourceforge.net/DTD/sodipodi-0.dtd"
   xmlns:inkscape="http://www.inkscape.org/namespaces/inkscape"
   version="1.1"
   x="0px"
   y="0px"
   viewBox="0 0 100 125"
   enable-background="new 0 0 100 100"
   xml:space="preserve"
   id="svg52"
   sodipodi:docname="Selfie_667312.svg"
   inkscape:version="0.92.3 (3ce5693, 2018-03-11)"><metadata
     id="metadata58"><rdf:RDF><cc:Work
         rdf:about=""><dc:format>image/svg+xml</dc:format><dc:type
           rdf:resource="http://purl.org/dc/dcmitype/StillImage" /><dc:title></dc:title></cc:Work></rdf:RDF></metadata><defs
     id="defs56" /><sodipodi:namedview
     pagecolor="#ffffff"
     bordercolor="#666666"
     borderopacity="1"
     objecttolerance="10"
     gridtolerance="10"
     guidetolerance="10"
     inkscape:pageopacity="0"
     inkscape:pageshadow="2"
     inkscape:window-width="1313"
     inkscape:window-height="744"
     id="namedview54"
     showgrid="false"
     inkscape:zoom="2.6700352"
     inkscape:cx="24.199081"
     inkscape:cy="45.911737"
     inkscape:window-x="53"
     inkscape:window-y="24"
     inkscape:window-maximized="1"
     inkscape:current-layer="g46" /><g
     display="none"
     id="g4"><rect
       x="-102.195"
       y="-945.895"
       display="inline"
       fill="#000000"
       width="1286.89"
       height="1225.445"
       id="rect2" /></g><g
     id="g46"><path
       fill="none"
       d="M45.267,29.241c1.069,0,2.066,0.304,2.918,0.823l1.819-4.982l-9.049,4.159H45.267z"
       id="path6" /><path
       fill="none"
       d="M70.298,26.537L68.3,27.455l-17.397,8v4.305h7.741h0.833h14c0,5.787-3.321,10.479-7.417,10.479   c-3.243,0-5.992-2.945-7-7.042c-1.008,4.096-3.757,7.042-7,7.042c-0.395,0-0.779-0.056-1.157-0.14v10.854   c0.255-0.229,0.588-0.371,0.957-0.371c0.795,0,1.44,0.645,1.44,1.441c0,0.795-0.646,1.439-1.44,1.439   c-0.369,0-0.702-0.143-0.957-0.371v10.285c0,1.135-0.34,2.19-0.919,3.075c-0.851,2.405-3.141,4.135-5.833,4.135h-4.688   c2.812,6.18,9.018,10.494,16.223,10.494h6.72c9.852,0,17.866-8.023,17.866-17.886V31.119l-7.976-3.664L70.298,26.537z    M44.661,85.062c-0.796,0-1.44-0.645-1.44-1.439c0-0.099,0.01-0.196,0.029-0.29c0.058-0.281,0.197-0.532,0.393-0.728   c0.065-0.065,0.136-0.124,0.213-0.176c0.153-0.104,0.328-0.178,0.515-0.217c0.094-0.019,0.191-0.029,0.29-0.029   c0.099,0,0.196,0.01,0.29,0.029c0.187,0.038,0.362,0.113,0.515,0.217c0.077,0.052,0.148,0.111,0.213,0.176   c0.195,0.195,0.335,0.447,0.392,0.728c0.019,0.094,0.029,0.191,0.029,0.29C46.1,84.418,45.456,85.062,44.661,85.062z M51.86,77.863   c-0.796,0-1.439-0.645-1.439-1.439c0-0.797,0.644-1.441,1.439-1.441c0.795,0,1.44,0.645,1.44,1.441   C53.301,77.219,52.655,77.863,51.86,77.863z M59.06,85.062c-0.796,0-1.439-0.645-1.439-1.439c0-0.099,0.01-0.196,0.029-0.29   c0.057-0.281,0.197-0.532,0.392-0.728c0.065-0.065,0.136-0.124,0.213-0.176c0.153-0.104,0.327-0.178,0.515-0.217   c0.094-0.019,0.191-0.029,0.29-0.029c0.099,0,0.196,0.01,0.29,0.029c0.187,0.038,0.362,0.113,0.515,0.217   c0.077,0.052,0.148,0.111,0.213,0.176c0.196,0.195,0.335,0.447,0.393,0.728c0.019,0.094,0.029,0.191,0.029,0.29   C60.501,84.418,59.855,85.062,59.06,85.062z M59.06,70.664c-0.796,0-1.439-0.646-1.439-1.441s0.643-1.439,1.439-1.439   c0.795,0,1.44,0.645,1.44,1.439S59.855,70.664,59.06,70.664z M63.677,51.5c0,2.546-2.071,4.616-4.617,4.616   s-4.617-2.07-4.617-4.616v-0.807h1.614v0.806h6.005v-0.806h1.614V51.5z M66.26,77.863c-0.796,0-1.44-0.645-1.44-1.439   c0-0.797,0.645-1.441,1.44-1.441c0.795,0,1.44,0.645,1.44,1.441C67.701,77.219,67.055,77.863,66.26,77.863z M66.26,63.463   c-0.796,0-1.44-0.645-1.44-1.439c0-0.797,0.645-1.441,1.44-1.441c0.795,0,1.44,0.645,1.44,1.441   C67.701,62.818,67.055,63.463,66.26,63.463z M74.266,84.816c-0.23,0.155-0.507,0.246-0.805,0.246c-0.199,0-0.388-0.04-0.561-0.113   c-0.517-0.219-0.88-0.73-0.88-1.326c0-0.099,0.01-0.196,0.029-0.29c0.058-0.281,0.197-0.532,0.393-0.728   c0.065-0.065,0.136-0.124,0.213-0.176c0.077-0.052,0.158-0.096,0.245-0.133c0.086-0.036,0.177-0.065,0.27-0.084   c0.094-0.019,0.191-0.029,0.29-0.029c0.099,0,0.196,0.01,0.29,0.029c0.187,0.038,0.362,0.113,0.515,0.217   c0.077,0.052,0.148,0.111,0.213,0.176c0.195,0.195,0.335,0.447,0.392,0.728c0.019,0.094,0.029,0.191,0.029,0.29   C74.9,84.12,74.648,84.558,74.266,84.816z M74.266,70.417c-0.23,0.156-0.507,0.246-0.805,0.246c-0.199,0-0.388-0.04-0.561-0.113   c-0.517-0.219-0.88-0.732-0.88-1.328s0.362-1.108,0.88-1.326c0.172-0.073,0.362-0.113,0.561-0.113c0.298,0,0.575,0.091,0.805,0.246   c0.383,0.259,0.635,0.697,0.635,1.194S74.648,70.158,74.266,70.417z M74.654,54.017c0.155,0.23,0.246,0.507,0.246,0.805   c0,0.199-0.04,0.388-0.113,0.56c-0.109,0.258-0.292,0.478-0.522,0.633s-0.507,0.246-0.805,0.246c-0.199,0-0.388-0.04-0.561-0.113   c-0.345-0.146-0.621-0.422-0.766-0.766c-0.073-0.172-0.113-0.362-0.113-0.56c0-0.298,0.091-0.575,0.246-0.805   c0.155-0.23,0.375-0.412,0.634-0.522c0.172-0.073,0.362-0.113,0.561-0.113c0.298,0,0.575,0.091,0.805,0.246   C74.419,53.732,74.551,53.864,74.654,54.017z"
       id="path8" /><path
       fill="#000000"
       d="M62.063,51.499L62.063,51.499c0,1.656-1.347,3.003-3.002,3.003s-3.002-1.348-3.002-3.003v0v-0.806h-1.614   V51.5c0,2.546,2.071,4.616,4.617,4.616s4.617-2.07,4.617-4.616v-0.807h-1.614V51.499z"
       id="path10" /><path
       d="M 80.177,17.386 C 78.363,13.982 75.639,11.181 72.292,9.283 71.651,8.926 71.032,8.619 70.418,8.356 V 8.298 L 69.454,7.944 C 69.208,7.852 68.963,7.761 68.744,7.696 66.66,7.016 64.527,6.671 62.406,6.671 h -6.72 c -4.122,0 -8.084,1.261 -11.45,3.641 -4.943,3.427 -8.063,8.807 -8.559,14.747 -0.05,0.528 -0.075,1.116 -0.075,1.746 v 2.436 h -4.948 c -3.108,0 -5.636,2.528 -5.636,5.636 V 62.86 c -4.025,2.345 -6.744,6.698 -6.744,11.682 v 17.242 h 2 V 74.542 c 0,-6.354 5.169,-11.522 11.522,-11.522 h 11.591 c 2.732,0 4.955,2.223 4.955,4.955 v 6.421 c 0,2.312 -1.88,4.191 -4.191,4.191 H 33.63 c -3.314,0 -6.01,2.695 -6.01,6.009 v 7.189 h 2 v -7.189 c 0,-2.211 1.799,-4.009 4.01,-4.009 h 3.393 c 2.947,7.451 10.193,12.742 18.663,12.742 h 6.72 c 11.09,0 20.113,-9.032 20.113,-20.134 v -46.39 c 0,-0.233 -0.001,-0.456 -0.021,-0.688 -0.097,-3.032 -0.899,-6.049 -2.321,-8.731 z M 48.185,30.064 c -0.852,-0.519 -1.849,-0.823 -2.918,-0.823 l -4.311,1 z M 43.387,61.019 H 31.796 c -1.684,0 -3.29,0.323 -4.779,0.888 V 34.876 c 0,-2.005 1.631,-3.636 3.636,-3.636 h 14.613 c 2.005,0 3.636,1.631 3.636,3.636 v 28.878 c -1.271,-1.659 -3.267,-2.735 -5.515,-2.735 z m 36.885,12.176 c 0,9.862 -8.015,17.886 -17.866,17.886 h -6.72 c -7.205,0 -13.411,-4.314 -16.223,-10.494 h 4.688 c 2.692,0 4.982,-1.73 5.833,-4.135 0.579,-0.885 0.919,-1.941 0.919,-3.075 V 63.092 60.954 50.099 c 0.378,0.084 0.763,0.14 1.157,0.14 3.243,0 5.992,-2.945 7,-7.042 1.008,4.096 3.757,7.042 7,7.042 4.096,0 7.417,-4.692 7.417,-10.479 h -14 -0.833 -7.741 v -4.305 l 17.397,-8 1.997,-0.917 1.998,0.917 7.976,3.664 v 42.076 z"
       id="path12"
       inkscape:connector-curvature="0"
       style="fill:#000000"
       sodipodi:nodetypes="ccccccssccscsscsccssssssssccsscssssccccccsscsssscscsscscscccscsccccccccccc" /><path
       fill="#000000"
       d="M84.968,38.889v9.173c2.528,0,4.586-2.058,4.586-4.586C89.554,40.947,87.496,38.889,84.968,38.889z"
       id="path14" /><g
       id="g42"><path
         fill="#000000"
         d="M22.404,27.224c-0.457,0.162-0.946,0.254-1.458,0.254s-1.002-0.093-1.458-0.254v6.379h2.917V27.224z"
         id="path34" /><path
         fill="#000000"
         d="M22.404,18.983v-6.379h-2.917v6.379c0.457-0.162,0.946-0.254,1.458-0.254S21.947,18.821,22.404,18.983z"
         id="path36" /><path
         fill="#000000"
         d="M31.446,24.562v-2.917h-6.379c0.162,0.457,0.254,0.946,0.254,1.458s-0.093,1.002-0.254,1.458H31.446z"
         id="path38" /><path
         fill="#000000"
         d="M10.446,21.645v2.917h6.379c-0.162-0.457-0.254-0.946-0.254-1.458s0.093-1.002,0.254-1.458H10.446z"
         id="path40" /></g><path
       fill="#000000"
       d="M37.96,38.415c-1.373,0-2.489,1.117-2.489,2.489s1.117,2.489,2.489,2.489s2.489-1.117,2.489-2.489   S39.333,38.415,37.96,38.415z M37.96,42.747c-1.017,0-1.844-0.826-1.844-1.843s0.827-1.843,1.844-1.843s1.844,0.826,1.844,1.843   S38.977,42.747,37.96,42.747z"
       id="path44" /></g></svg>